HIERARCHY
ROOT Hips
{
    OFFSET 0.000 95.729 0.000
    CHANNELS 6 Xposition Yposition Zposition Yrotation Xrotation Zrotation
    JOINT RightUpLeg
    {
        OFFSET -9.625 -1.639 0.000
        CHANNELS 3 Yrotation Xrotation Zrotation
        JOINT RightLeg
        {
            OFFSET 0.000 -41.481 0.000
            CHANNELS 3 Yrotation Xrotation Zrotation
            JOINT RightFoot
            {
                OFFSET 0.000 -43.120 0.000
                CHANNELS 3 Yrotation Xrotation Zrotation
                End Site
                {
                    OFFSET 0.000 -7.850 17.850
                }
            }
        }
    }
    JOINT LeftUpLeg
    {
        OFFSET 9.625 -1.639 0.000
        CHANNELS 3 Yrotation Xrotation Zrotation
        JOINT LeftLeg
        {
            OFFSET 0.000 -43.120 0.000
            CHANNELS 3 Yrotation Xrotation Zrotation
            JOINT LeftFoot
            {
                OFFSET 0.000 -43.120 0.000
                CHANNELS 3 Yrotation Xrotation Zrotation
                End Site
                {
                    OFFSET 0.000 -7.850 17.850
                }
            }
        }
    }
    JOINT Spine
    {
        OFFSET 0.000 16.395 0.000
        CHANNELS 3 Yrotation Xrotation Zrotation
        JOINT Spine1
        {
            OFFSET 0.000 10.023 0.000
            CHANNELS 3 Yrotation Xrotation Zrotation
            JOINT Spine2
            {
                OFFSET 0.000 10.437 0.000
                CHANNELS 3 Yrotation Xrotation Zrotation
                JOINT Spine3
                {
                    OFFSET 0.000 10.023 0.000
                    CHANNELS 3 Yrotation Xrotation Zrotation
                    JOINT Neck
                    {
                        OFFSET 0.000 10.713 0.000
                        CHANNELS 3 Yrotation Xrotation Zrotation
                        JOINT Head
                        {
                            OFFSET 0.000 9.720 0.000
                            CHANNELS 3 Yrotation Xrotation Zrotation
                            End Site
                            {
                                OFFSET 0.000 16.450 0.000
                            }
                        }
                    }
                    JOINT RightShoulder
                    {
                        OFFSET -3.275 7.142 0.000
                        CHANNELS 3 Yrotation Xrotation Zrotation
                        JOINT RightArm
                        {
                            OFFSET -13.100 0.000 0.000
                            CHANNELS 3 Yrotation Xrotation Zrotation
                            JOINT RightForeArm
                            {
                                OFFSET -27.250 0.000 0.000
                                CHANNELS 3 Yrotation Xrotation Zrotation
                                JOINT RightHand
                                {
                                    OFFSET -26.750 0.000 0.000
                                    CHANNELS 3 Yrotation Xrotation Zrotation
                                    JOINT RightHandThumb1
                                    {
                                        OFFSET -2.560 0.196 3.210
                                        CHANNELS 3 Yrotation Xrotation Zrotation
                                        JOINT RightHandThumb2
                                        {
                                            OFFSET -3.788 0.000 0.000
                                            CHANNELS 3 Yrotation Xrotation Zrotation
                                            JOINT RightHandThumb3
                                            {
                                                OFFSET -2.631 0.000 0.000
                                                CHANNELS 3 Yrotation Xrotation Zrotation
                                                End Site
                                                {
                                                    OFFSET -2.256 0.000 0.000
                                                }
                                            }
                                        }
                                    }
                                    JOINT RightInHandIndex
                                    {
                                        OFFSET -3.316 0.523 2.035
                                        CHANNELS 3 Yrotation Xrotation Zrotation
                                        JOINT RightHandIndex1
                                        {
                                            OFFSET -5.366 -0.094 1.028
                                            CHANNELS 3 Yrotation Xrotation Zrotation
                                            JOINT RightHandIndex2
                                            {
                                                OFFSET -3.723 0.000 0.000
                                                CHANNELS 3 Yrotation Xrotation Zrotation
                                                JOINT RightHandIndex3
                                                {
                                                    OFFSET -2.111 0.000 0.000
                                                    CHANNELS 3 Yrotation Xrotation Zrotation
                                                    End Site
                                                    {
                                                        OFFSET -1.857 0.000 0.000
                                                    }
                                                }
                                            }
                                        }
                                    }
                                    JOINT RightInHandMiddle
                                    {
                                        OFFSET -3.479 0.532 0.778
                                        CHANNELS 3 Yrotation Xrotation Zrotation
                                        JOINT RightHandMiddle1
                                        {
                                            OFFSET -5.322 -0.086 0.323
                                            CHANNELS 3 Yrotation Xrotation Zrotation
                                            JOINT RightHandMiddle2
                                            {
                                                OFFSET -4.062 0.000 0.000
                                                CHANNELS 3 Yrotation Xrotation Zrotation
                                                JOINT RightHandMiddle3
                                                {
                                                    OFFSET -2.547 0.000 0.000
                                                    CHANNELS 3 Yrotation Xrotation Zrotation
                                                    End Site
                                                    {
                                                        OFFSET -2.031 0.000 0.000
                                                    }
                                                }
                                            }
                                        }
                                    }
                                    JOINT RightInHandRing
                                    {
                                        OFFSET -3.461 0.553 -0.133
                                        CHANNELS 3 Yrotation Xrotation Zrotation
                                        JOINT RightHandRing1
                                        {
                                            OFFSET -4.767 -0.023 -0.493
                                            CHANNELS 3 Yrotation Xrotation Zrotation
                                            JOINT RightHandRing2
                                            {
                                                OFFSET -3.541 0.000 0.000
                                                CHANNELS 3 Yrotation Xrotation Zrotation
                                                JOINT RightHandRing3
                                                {
                                                    OFFSET -2.456 0.000 0.000
                                                    CHANNELS 3 Yrotation Xrotation Zrotation
                                                    End Site
                                                    {
                                                        OFFSET -1.910 0.000 0.000
                                                    }
                                                }
                                            }
                                        }
                                    }
                                    JOINT RightInHandPinky
                                    {
                                        OFFSET -3.251 0.483 -1.236
                                        CHANNELS 3 Yrotation Xrotation Zrotation
                                        JOINT RightHandPinky1
                                        {
                                            OFFSET -4.259 -0.023 -1.122
                                            CHANNELS 3 Yrotation Xrotation Zrotation
                                            JOINT RightHandPinky2
                                            {
                                                OFFSET -2.835 0.000 0.000
                                                CHANNELS 3 Yrotation Xrotation Zrotation
                                                JOINT RightHandPinky3
                                                {
                                                    OFFSET -1.792 0.000 0.000
                                                    CHANNELS 3 Yrotation Xrotation Zrotation
                                                    End Site
                                                    {
                                                        OFFSET -1.692 0.000 0.000
                                                    }
                                                }
                                            }
                                        }
                                    }
                                }
                            }
                        }
                    }
                    JOINT LeftShoulder
                    {
                        OFFSET 3.275 7.142 0.000
                        CHANNELS 3 Yrotation Xrotation Zrotation
                        JOINT LeftArm
                        {
                            OFFSET 13.100 0.000 0.000
                            CHANNELS 3 Yrotation Xrotation Zrotation
                            JOINT LeftForeArm
                            {
                                OFFSET 27.250 0.000 0.000
                                CHANNELS 3 Yrotation Xrotation Zrotation
                                JOINT LeftHand
                                {
                                    OFFSET 26.750 0.000 0.000
                                    CHANNELS 3 Yrotation Xrotation Zrotation
                                    JOINT LeftHandThumb1
                                    {
                                        OFFSET 2.560 0.196 3.210
                                        CHANNELS 3 Yrotation Xrotation Zrotation
                                        JOINT LeftHandThumb2
                                        {
                                            OFFSET 3.788 0.000 0.000
                                            CHANNELS 3 Yrotation Xrotation Zrotation
                                            JOINT LeftHandThumb3
                                            {
                                                OFFSET 2.631 0.000 0.000
                                                CHANNELS 3 Yrotation Xrotation Zrotation
                                                End Site
                                                {
                                                    OFFSET 2.256 0.000 0.000
                                                }
                                            }
                                        }
                                    }
                                    JOINT LeftInHandIndex
                                    {
                                        OFFSET 3.316 0.523 2.035
                                        CHANNELS 3 Yrotation Xrotation Zrotation
                                        JOINT LeftHandIndex1
                                        {
                                            OFFSET 5.366 -0.094 1.028
                                            CHANNELS 3 Yrotation Xrotation Zrotation
                                            JOINT LeftHandIndex2
                                            {
                                                OFFSET 3.723 0.000 0.000
                                                CHANNELS 3 Yrotation Xrotation Zrotation
                                                JOINT LeftHandIndex3
                                                {
                                                    OFFSET 2.111 0.000 0.000
                                                    CHANNELS 3 Yrotation Xrotation Zrotation
                                                    End Site
                                                    {
                                                        OFFSET 1.857 0.000 0.000
                                                    }
                                                }
                                            }
                                        }
                                    }
                                    JOINT LeftInHandMiddle
                                    {
                                        OFFSET 3.479 0.532 0.778
                                        CHANNELS 3 Yrotation Xrotation Zrotation
                                        JOINT LeftHandMiddle1
                                        {
                                            OFFSET 5.322 -0.086 0.323
                                            CHANNELS 3 Yrotation Xrotation Zrotation
                                            JOINT LeftHandMiddle2
                                            {
                                                OFFSET 4.062 0.000 0.000
                                                CHANNELS 3 Yrotation Xrotation Zrotation
                                                JOINT LeftHandMiddle3
                                                {
                                                    OFFSET 2.547 0.000 0.000
                                                    CHANNELS 3 Yrotation Xrotation Zrotation
                                                    End Site
                                                    {
                                                        OFFSET 2.031 0.000 0.000
                                                    }
                                                }
                                            }
                                        }
                                    }
                                    JOINT LeftInHandRing
                                    {
                                        OFFSET 3.461 0.553 -0.133
                                        CHANNELS 3 Yrotation Xrotation Zrotation
                                        JOINT LeftHandRing1
                                        {
                                            OFFSET 4.767 -0.023 -0.493
                                            CHANNELS 3 Yrotation Xrotation Zrotation
                                            JOINT LeftHandRing2
                                            {
                                                OFFSET 3.541 0.000 0.000
                                                CHANNELS 3 Yrotation Xrotation Zrotation
                                                JOINT LeftHandRing3
                                                {
                                                    OFFSET 2.456 0.000 0.000
                                                    CHANNELS 3 Yrotation Xrotation Zrotation
                                                    End Site
                                                    {
                                                        OFFSET 1.910 0.000 0.000
                                                    }
                                                }
                                            }
                                        }
                                    }
                                    JOINT LeftInHandPinky
                                    {
                                        OFFSET 3.251 0.483 -1.236
                                        CHANNELS 3 Yrotation Xrotation Zrotation
                                        JOINT LeftHandPinky1
                                        {
                                            OFFSET 4.259 -0.023 -1.122
                                            CHANNELS 3 Yrotation Xrotation Zrotation
                                            JOINT LeftHandPinky2
                                            {
                                                OFFSET 2.835 0.000 0.000
                                                CHANNELS 3 Yrotation Xrotation Zrotation
                                                JOINT LeftHandPinky3
                                                {
                                                    OFFSET 1.792 0.000 0.000
                                                    CHANNELS 3 Yrotation Xrotation Zrotation
                                                    End Site
                                                    {
                                                        OFFSET 1.692 0.000 0.000
                                                    }
                                                }
                                            }
                                        }
                                    }
                                }
                            }
                        }
                    }
                }
            }
        }
    }
}
MOTION
Frames: 5
Frame Time: 0.010000
39.03 94.69 39.5 -152.07 3.64 -1.26 5.69 -15.07 -0.83 -0.0 25.55 -0.0 -9.49 -12.52 2.17 20.92 -14.91 -0.5 0.0 28.55 0.0 0.58 -14.95 -1.37 7.77 3.28 -2.81 1.94 0.87 -0.74 3.18 1.53 -1.21 -0.23 0.36 0.47 -0.23 0.37 0.47 -3.12 7.03 8.3 21.64 -7.3 -26.17 83.6 -64.07 -19.15 11.07 40.29 -29.07 5.33 5.87 -40.19 21.86 -0.0 30.0 -10.0 -0.0 0.0 -10.0 -0.0 0.0 0.0 -0.0 0.0 2.55 -0.0 20.0 0.0 -0.0 24.0 0.0 -0.0 20.0 0.0 -0.0 0.0 0.0 -0.0 20.0 0.0 -0.0 24.0 0.0 -0.0 20.0 0.0 -0.0 0.0 -3.0 -0.0 20.0 0.0 -0.0 24.0 0.0 -0.0 20.0 0.0 -0.0 0.0 -8.83 -0.0 20.0 0.0 -0.0 24.0 0.0 -0.0 20.0 4.2 2.76 -9.91 -19.02 -3.08 -64.43 -12.39 43.79 -5.84 1.73 -14.07 13.35 -21.86 -0.0 -30.0 10.0 -0.0 0.0 10.0 -0.0 0.0 0.0 -0.0 0.0 -2.55 -0.0 -20.0 0.0 -0.0 -24.0 0.0 -0.0 -20.0 0.0 -0.0 0.0 0.0 -0.0 -20.0 0.0 -0.0 -24.0 0.0 -0.0 -20.0 0.0 -0.0 0.0 3.0 -0.0 -20.0 0.0 -0.0 -24.0 0.0 -0.0 -20.0 0.0 -0.0 0.0 8.83 -0.0 -20.0 0.0 -0.0 -24.0 0.0 -0.0 -20.0
38.66 94.91 39.77 -152.59 4.33 -1.51 4.98 -17.04 -0.34 0.0 27.3 0.0 -10.5 -13.62 3.65 21.01 -15.2 -0.77 0.0 27.85 -0.0 0.69 -14.45 -1.52 7.2 3.6 -2.71 1.79 0.95 -0.72 2.94 1.66 -1.17 -0.2 0.33 0.46 -0.2 0.33 0.46 -2.72 6.32 8.27 21.78 -7.66 -26.82 83.22 -64.5 -20.01 9.44 36.85 -28.85 4.12 5.48 -40.54 21.86 -0.0 30.0 -10.0 -0.0 0.0 -10.0 -0.0 0.0 0.0 -0.0 0.0 2.55 -0.0 20.0 0.0 -0.0 24.0 0.0 -0.0 20.0 0.0 -0.0 0.0 0.0 -0.0 20.0 0.0 -0.0 24.0 0.0 -0.0 20.0 0.0 -0.0 0.0 -3.0 -0.0 20.0 0.0 -0.0 24.0 0.0 -0.0 20.0 0.0 -0.0 0.0 -8.83 -0.0 20.0 0.0 -0.0 24.0 0.0 -0.0 20.0 4.9 2.23 -10.18 -18.92 -2.11 -64.08 -11.8 43.34 -5.3 1.15 -14.24 12.94 -21.86 -0.0 -30.0 10.0 -0.0 0.0 10.0 -0.0 0.0 0.0 -0.0 0.0 -2.55 -0.0 -20.0 0.0 -0.0 -24.0 0.0 -0.0 -20.0 0.0 -0.0 0.0 0.0 -0.0 -20.0 0.0 -0.0 -24.0 0.0 -0.0 -20.0 0.0 -0.0 0.0 3.0 -0.0 -20.0 0.0 -0.0 -24.0 0.0 -0.0 -20.0 0.0 -0.0 0.0 8.83 -0.0 -20.0 0.0 -0.0 -24.0 0.0 -0.0 -20.0
38.35 95.11 39.99 -152.77 4.9 -1.74 3.05 -18.92 0.57 0.0 29.52 0.0 -9.84 -14.64 4.08 20.86 -15.53 -0.96 -0.0 27.32 -0.0 0.68 -13.78 -1.53 7.3 3.24 -2.64 1.82 0.85 -0.7 2.99 1.5 -1.14 -0.27 0.35 0.48 -0.27 0.35 0.48 -3.87 6.86 8.58 20.2 -7.25 -26.21 82.45 -65.74 -19.92 8.23 33.56 -28.23 4.17 5.24 -41.26 21.86 -0.0 30.0 -10.0 -0.0 0.0 -10.0 -0.0 0.0 0.0 -0.0 0.0 2.55 -0.0 20.0 0.0 -0.0 24.0 0.0 -0.0 20.0 0.0 -0.0 0.0 0.0 -0.0 20.0 0.0 -0.0 24.0 0.0 -0.0 20.0 0.0 -0.0 0.0 -3.0 -0.0 20.0 0.0 -0.0 24.0 0.0 -0.0 20.0 0.0 -0.0 0.0 -8.83 -0.0 20.0 0.0 -0.0 24.0 0.0 -0.0 20.0 4.1 3.5 -10.02 -18.67 -2.0 -63.57 -11.33 43.17 -4.82 0.63 -14.42 12.86 -21.86 -0.0 -30.0 10.0 -0.0 0.0 10.0 -0.0 0.0 0.0 -0.0 0.0 -2.55 -0.0 -20.0 0.0 -0.0 -24.0 0.0 -0.0 -20.0 0.0 -0.0 0.0 0.0 -0.0 -20.0 0.0 -0.0 -24.0 0.0 -0.0 -20.0 0.0 -0.0 0.0 3.0 -0.0 -20.0 0.0 -0.0 -24.0 0.0 -0.0 -20.0 0.0 -0.0 0.0 8.83 -0.0 -20.0 0.0 -0.0 -24.0 0.0 -0.0 -20.0
38.03 95.3 40.0 -152.72 5.39 -1.79 1.79 -20.96 1.49 0.0 32.14 0.0 -9.26 -15.31 5.23 20.57 -15.86 -1.19 -0.0 27.11 0.0 0.61 -12.81 -1.41 6.29 4.49 -2.5 1.57 1.17 -0.67 2.56 2.01 -1.09 -0.29 0.24 0.49 -0.29 0.24 0.49 -4.44 5.08 8.78 19.07 -10.17 -25.43 81.11 -66.73 -17.32 7.44 30.71 -27.36 4.96 5.02 -42.33 21.86 -0.0 30.0 -10.0 -0.0 0.0 -10.0 -0.0 0.0 0.0 -0.0 0.0 2.55 -0.0 20.0 0.0 -0.0 24.0 0.0 -0.0 20.0 0.0 -0.0 0.0 0.0 -0.0 20.0 0.0 -0.0 24.0 0.0 -0.0 20.0 0.0 -0.0 0.0 -3.0 -0.0 20.0 0.0 -0.0 24.0 0.0 -0.0 20.0 0.0 -0.0 0.0 -8.83 -0.0 20.0 0.0 -0.0 24.0 0.0 -0.0 20.0 5.22 1.69 -10.66 -18.69 -1.23 -63.2 -11.22 42.76 -4.43 -0.13 -14.69 13.12 -21.86 -0.0 -30.0 10.0 -0.0 0.0 10.0 -0.0 0.0 0.0 -0.0 0.0 -2.55 -0.0 -20.0 0.0 -0.0 -24.0 0.0 -0.0 -20.0 0.0 -0.0 0.0 0.0 -0.0 -20.0 0.0 -0.0 -24.0 0.0 -0.0 -20.0 0.0 -0.0 0.0 3.0 -0.0 -20.0 0.0 -0.0 -24.0 0.0 -0.0 -20.0 0.0 -0.0 0.0 8.83 -0.0 -20.0 0.0 -0.0 -24.0 0.0 -0.0 -20.0
37.94 95.06 40.13 -152.51 6.07 -1.75 0.57 -23.07 2.28 -0.0 34.75 -0.0 -8.49 -15.65 7.31 20.21 -16.29 -1.34 -0.0 26.59 0.0 0.7 -11.79 -1.42 5.84 5.42 -2.31 1.45 1.4 -0.63 2.37 2.39 -1.02 -0.4 0.15 0.51 -0.4 0.16 0.51 -6.72 3.89 9.05 16.9 -13.01 -23.82 82.0 -66.28 -15.87 4.16 28.99 -27.28 7.87 5.3 -44.22 21.86 -0.0 30.0 -10.0 -0.0 0.0 -10.0 -0.0 0.0 0.0 -0.0 0.0 2.55 -0.0 20.0 0.0 -0.0 24.0 0.0 -0.0 20.0 0.0 -0.0 0.0 0.0 -0.0 20.0 0.0 -0.0 24.0 0.0 -0.0 20.0 0.0 -0.0 0.0 -3.0 -0.0 20.0 0.0 -0.0 24.0 0.0 -0.0 20.0 0.0 -0.0 0.0 -8.83 -0.0 20.0 0.0 -0.0 24.0 0.0 -0.0 20.0 4.97 2.13 -11.18 -18.49 -2.55 -62.33 -11.29 42.46 -4.18 -0.28 -14.75 13.37 -21.86 -0.0 -30.0 10.0 -0.0 0.0 10.0 -0.0 0.0 0.0 -0.0 0.0 -2.55 -0.0 -20.0 0.0 -0.0 -24.0 0.0 -0.0 -20.0 0.0 -0.0 0.0 0.0 -0.0 -20.0 0.0 -0.0 -24.0 0.0 -0.0 -20.0 0.0 -0.0 0.0 3.0 -0.0 -20.0 0.0 -0.0 -24.0 0.0 -0.0 -20.0 0.0 -0.0 0.0 8.83 -0.0 -20.0 0.0 -0.0 -24.0 0.0 -0.0 -20.0
